<?xml version="1.0" encoding="UTF-8" standalone="no"?>
<!DOCTYPE svg PUBLIC "-//W3C//DTD SVG 1.1//EN"
 "http://www.w3.org/Graphics/SVG/1.1/DTD/svg11.dtd">
<!-- Generated by graphviz version 2.38.0 (20140413.2041)
 -->
<!-- Title: %3 Pages: 1 -->
<svg width="3703pt" height="185pt"
 viewBox="0.00 0.00 3703.00 185.00" xmlns="http://www.w3.org/2000/svg" xmlns:xlink="http://www.w3.org/1999/xlink">
<g id="graph0" class="graph" transform="scale(1 1) rotate(0) translate(4 181)">
<title>%3</title>
<polygon fill="white" stroke="none" points="-4,4 -4,-181 3699,-181 3699,4 -4,4"/>
<!-- node5 -->
<g id="node1" class="node"><title>node5</title>
<polygon fill="grey" stroke="none" points="9.5,-152.5 9.5,-171.5 346.5,-171.5 346.5,-152.5 9.5,-152.5"/>
<text text-anchor="start" x="11.5" y="-159.3" font-family="DejaVu Sans" font-weight="bold" font-size="14.00">Nc56674e3bb56442e90875fb1ef022679</text>
<g id="a_node1_0"><a xlink:href="Nc56674e3bb56442e90875fb1ef022679" xlink:title="&lt;TABLE&gt;">
<polygon fill="#eeeeee" stroke="none" points="9.5,-137.5 9.5,-152.5 346.5,-152.5 346.5,-137.5 9.5,-137.5"/>
<text text-anchor="start" x="80.5" y="-142.5" font-family="DejaVu Sans" font-size="10.00" fill="#6666ff">Nc56674e3bb56442e90875fb1ef022679</text>
</a>
</g>
<text text-anchor="start" x="11.5" y="-124.3" font-family="DejaVu Sans" font-size="14.00">rdf:label</text>
<text text-anchor="start" x="188.5" y="-124.3" font-family="DejaVu Sans" font-size="14.00">&quot;Iron&quot;</text>
<polygon fill="none" stroke="#666666" points="8,-118 8,-173 347,-173 347,-118 8,-118"/>
</g>
<!-- node3 -->
<g id="node2" class="node"><title>node3</title>
<polygon fill="grey" stroke="none" points="19.5,-38.5 19.5,-57.5 343.5,-57.5 343.5,-38.5 19.5,-38.5"/>
<text text-anchor="start" x="21.5" y="-45.3" font-family="DejaVu Sans" font-weight="bold" font-size="14.00">N1b9cc8b3c84c4aa3b0bccf011a6b3f30</text>
<g id="a_node2_1"><a xlink:href="N1b9cc8b3c84c4aa3b0bccf011a6b3f30" xlink:title="&lt;TABLE&gt;">
<polygon fill="#eeeeee" stroke="none" points="19.5,-23.5 19.5,-38.5 343.5,-38.5 343.5,-23.5 19.5,-23.5"/>
<text text-anchor="start" x="84" y="-28.5" font-family="DejaVu Sans" font-size="10.00" fill="#6666ff">N1b9cc8b3c84c4aa3b0bccf011a6b3f30</text>
</a>
</g>
<text text-anchor="start" x="21.5" y="-10.3" font-family="DejaVu Sans" font-size="14.00">rdf:label</text>
<text text-anchor="start" x="160.5" y="-10.3" font-family="DejaVu Sans" font-size="14.00">&quot;1500&#45;2000 K&quot;</text>
<polygon fill="none" stroke="#666666" points="18.5,-4 18.5,-59 344.5,-59 344.5,-4 18.5,-4"/>
</g>
<!-- node5&#45;&gt;node3 -->
<g id="edge1" class="edge"><title>node5&#45;&gt;node3</title>
<path fill="none" stroke="BLACK" d="M178.593,-113.896C179.043,-101.302 179.57,-86.5351 180.051,-73.0614"/>
<polygon fill="BLACK" stroke="BLACK" points="183.549,-73.1861 180.408,-63.0675 176.554,-72.9362 183.549,-73.1861"/>
<text text-anchor="start" x="180.5" y="-85.8" font-family="Times,serif" font-size="14.00"> </text>
<text text-anchor="start" x="184.5" y="-85.8" font-family="Times,serif" font-size="10.00" fill="#336633">ns1:melting&#45;point</text>
<text text-anchor="start" x="254.5" y="-85.8" font-family="Times,serif" font-size="14.00"> </text>
</g>
<!-- node10 -->
<g id="node6" class="node"><title>node10</title>
<polygon fill="grey" stroke="none" points="379.5,-38.5 379.5,-57.5 709.5,-57.5 709.5,-38.5 379.5,-38.5"/>
<text text-anchor="start" x="381.5" y="-45.3" font-family="DejaVu Sans" font-weight="bold" font-size="14.00">N9b4f56da05834e1c8e0012549632cffe</text>
<g id="a_node6_2"><a xlink:href="N9b4f56da05834e1c8e0012549632cffe" xlink:title="&lt;TABLE&gt;">
<polygon fill="#eeeeee" stroke="none" points="379.5,-23.5 379.5,-38.5 709.5,-38.5 709.5,-23.5 379.5,-23.5"/>
<text text-anchor="start" x="448" y="-28.5" font-family="DejaVu Sans" font-size="10.00" fill="#6666ff">N9b4f56da05834e1c8e0012549632cffe</text>
</a>
</g>
<text text-anchor="start" x="381.5" y="-10.3" font-family="DejaVu Sans" font-size="14.00">rdf:label</text>
<text text-anchor="start" x="523.5" y="-10.3" font-family="DejaVu Sans" font-size="14.00">&quot;3000&#45;3500 K&quot;</text>
<polygon fill="none" stroke="#666666" points="378.5,-4 378.5,-59 710.5,-59 710.5,-4 378.5,-4"/>
</g>
<!-- node5&#45;&gt;node10 -->
<g id="edge6" class="edge"><title>node5&#45;&gt;node10</title>
<path fill="none" stroke="BLACK" d="M298.622,-113.981C319.664,-108.278 341.276,-102.164 361.5,-96 390.834,-87.0587 422.491,-76.4299 451.093,-66.4505"/>
<polygon fill="BLACK" stroke="BLACK" points="452.389,-69.7052 460.668,-63.0944 450.073,-63.0992 452.389,-69.7052"/>
<text text-anchor="start" x="407.5" y="-85.8" font-family="Times,serif" font-size="14.00"> </text>
<text text-anchor="start" x="411.5" y="-85.8" font-family="Times,serif" font-size="10.00" fill="#336633">ns1:boiling&#45;point</text>
<text text-anchor="start" x="479.5" y="-85.8" font-family="Times,serif" font-size="14.00"> </text>
</g>
<!-- node6 -->
<g id="node10" class="node"><title>node6</title>
<polygon fill="grey" stroke="none" points="747.5,-38.5 747.5,-57.5 1079.5,-57.5 1079.5,-38.5 747.5,-38.5"/>
<text text-anchor="start" x="749.5" y="-45.3" font-family="DejaVu Sans" font-weight="bold" font-size="14.00">N1e4164022cce4f52a0f8a29049aaeaba</text>
<g id="a_node10_3"><a xlink:href="N1e4164022cce4f52a0f8a29049aaeaba" xlink:title="&lt;TABLE&gt;">
<polygon fill="#eeeeee" stroke="none" points="747.5,-23.5 747.5,-38.5 1079.5,-38.5 1079.5,-23.5 747.5,-23.5"/>
<text text-anchor="start" x="816" y="-28.5" font-family="DejaVu Sans" font-size="10.00" fill="#6666ff">N1e4164022cce4f52a0f8a29049aaeaba</text>
</a>
</g>
<text text-anchor="start" x="749.5" y="-10.3" font-family="DejaVu Sans" font-size="14.00">rdf:label</text>
<text text-anchor="start" x="920.5" y="-10.3" font-family="DejaVu Sans" font-size="14.00">&quot;Solid&quot;</text>
<polygon fill="none" stroke="#666666" points="746.5,-4 746.5,-59 1080.5,-59 1080.5,-4 746.5,-4"/>
</g>
<!-- node5&#45;&gt;node6 -->
<g id="edge8" class="edge"><title>node5&#45;&gt;node6</title>
<path fill="none" stroke="BLACK" d="M355.106,-115.063C358.26,-114.693 361.393,-114.338 364.5,-114 436.85,-106.131 623.431,-121.749 691.5,-96 701.563,-92.1934 700.819,-85.6933 710.5,-81 721.692,-75.5744 733.531,-70.7319 745.644,-66.4136"/>
<polygon fill="BLACK" stroke="BLACK" points="747.088,-69.6185 755.41,-63.0616 744.816,-62.9977 747.088,-69.6185"/>
<text text-anchor="start" x="710.5" y="-85.8" font-family="Times,serif" font-size="14.00"> </text>
<text text-anchor="start" x="714.5" y="-85.8" font-family="Times,serif" font-size="10.00" fill="#336633">ns1:phase</text>
<text text-anchor="start" x="754.5" y="-85.8" font-family="Times,serif" font-size="14.00"> </text>
</g>
<!-- node8 -->
<g id="node3" class="node"><title>node8</title>
<polygon fill="grey" stroke="none" points="2241.5,-152.5 2241.5,-171.5 2579.5,-171.5 2579.5,-152.5 2241.5,-152.5"/>
<text text-anchor="start" x="2243.5" y="-159.3" font-family="DejaVu Sans" font-weight="bold" font-size="14.00">N9bb89465afa44d06a47344d8f69a7298</text>
<g id="a_node3_4"><a xlink:href="N9bb89465afa44d06a47344d8f69a7298" xlink:title="&lt;TABLE&gt;">
<polygon fill="#eeeeee" stroke="none" points="2241.5,-137.5 2241.5,-152.5 2579.5,-152.5 2579.5,-137.5 2241.5,-137.5"/>
<text text-anchor="start" x="2313" y="-142.5" font-family="DejaVu Sans" font-size="10.00" fill="#6666ff">N9bb89465afa44d06a47344d8f69a7298</text>
</a>
</g>
<text text-anchor="start" x="2243.5" y="-124.3" font-family="DejaVu Sans" font-size="14.00">rdf:label</text>
<text text-anchor="start" x="2406.5" y="-124.3" font-family="DejaVu Sans" font-size="14.00">&quot;Bromine&quot;</text>
<polygon fill="none" stroke="#666666" points="2240.5,-118 2240.5,-173 2580.5,-173 2580.5,-118 2240.5,-118"/>
</g>
<!-- node2 -->
<g id="node4" class="node"><title>node2</title>
<polygon fill="grey" stroke="none" points="2249.5,-38.5 2249.5,-57.5 2577.5,-57.5 2577.5,-38.5 2249.5,-38.5"/>
<text text-anchor="start" x="2251.5" y="-45.3" font-family="DejaVu Sans" font-weight="bold" font-size="14.00">N339ed8a73b7648bfb9c5bfabb7d6f9b4</text>
<g id="a_node4_5"><a xlink:href="N339ed8a73b7648bfb9c5bfabb7d6f9b4" xlink:title="&lt;TABLE&gt;">
<polygon fill="#eeeeee" stroke="none" points="2249.5,-23.5 2249.5,-38.5 2577.5,-38.5 2577.5,-23.5 2249.5,-23.5"/>
<text text-anchor="start" x="2317" y="-28.5" font-family="DejaVu Sans" font-size="10.00" fill="#6666ff">N339ed8a73b7648bfb9c5bfabb7d6f9b4</text>
</a>
</g>
<text text-anchor="start" x="2251.5" y="-10.3" font-family="DejaVu Sans" font-size="14.00">rdf:label</text>
<text text-anchor="start" x="2417.5" y="-10.3" font-family="DejaVu Sans" font-size="14.00">&quot;Liquid&quot;</text>
<polygon fill="none" stroke="#666666" points="2248.5,-4 2248.5,-59 2578.5,-59 2578.5,-4 2248.5,-4"/>
</g>
<!-- node8&#45;&gt;node2 -->
<g id="edge2" class="edge"><title>node8&#45;&gt;node2</title>
<path fill="none" stroke="BLACK" d="M2411.32,-113.896C2411.65,-101.426 2412.04,-86.8244 2412.4,-73.458"/>
<polygon fill="BLACK" stroke="BLACK" points="2415.91,-73.1577 2412.68,-63.0675 2408.91,-72.9702 2415.91,-73.1577"/>
<text text-anchor="start" x="2412.5" y="-85.8" font-family="Times,serif" font-size="14.00"> </text>
<text text-anchor="start" x="2416.5" y="-85.8" font-family="Times,serif" font-size="10.00" fill="#336633">ns1:phase</text>
<text text-anchor="start" x="2456.5" y="-85.8" font-family="Times,serif" font-size="14.00"> </text>
</g>
<!-- node16 -->
<g id="node11" class="node"><title>node16</title>
<polygon fill="grey" stroke="none" points="2614.5,-38.5 2614.5,-57.5 2945.5,-57.5 2945.5,-38.5 2614.5,-38.5"/>
<text text-anchor="start" x="2616.5" y="-45.3" font-family="DejaVu Sans" font-weight="bold" font-size="14.00">N501cd412ca424fd59f5d540d43377f06</text>
<g id="a_node11_6"><a xlink:href="N501cd412ca424fd59f5d540d43377f06" xlink:title="&lt;TABLE&gt;">
<polygon fill="#eeeeee" stroke="none" points="2614.5,-23.5 2614.5,-38.5 2945.5,-38.5 2945.5,-23.5 2614.5,-23.5"/>
<text text-anchor="start" x="2683.5" y="-28.5" font-family="DejaVu Sans" font-size="10.00" fill="#6666ff">N501cd412ca424fd59f5d540d43377f06</text>
</a>
</g>
<text text-anchor="start" x="2616.5" y="-10.3" font-family="DejaVu Sans" font-size="14.00">rdf:label</text>
<text text-anchor="start" x="2767.5" y="-10.3" font-family="DejaVu Sans" font-size="14.00">&quot;200&#45;300 K&quot;</text>
<polygon fill="none" stroke="#666666" points="2613,-4 2613,-59 2946,-59 2946,-4 2613,-4"/>
</g>
<!-- node8&#45;&gt;node16 -->
<g id="edge9" class="edge"><title>node8&#45;&gt;node16</title>
<path fill="none" stroke="BLACK" d="M2485.96,-113.907C2514.94,-102.752 2548.5,-90.5453 2579.5,-81 2597.01,-75.6087 2615.53,-70.431 2633.96,-65.5979"/>
<polygon fill="BLACK" stroke="BLACK" points="2635.07,-68.9242 2643.88,-63.0261 2633.32,-62.1483 2635.07,-68.9242"/>
<text text-anchor="start" x="2579.5" y="-85.8" font-family="Times,serif" font-size="14.00"> </text>
<text text-anchor="start" x="2583.5" y="-85.8" font-family="Times,serif" font-size="10.00" fill="#336633">ns1:melting&#45;point</text>
<text text-anchor="start" x="2653.5" y="-85.8" font-family="Times,serif" font-size="14.00"> </text>
</g>
<!-- node0 -->
<g id="node15" class="node"><title>node0</title>
<polygon fill="grey" stroke="none" points="1873.5,-38.5 1873.5,-57.5 2213.5,-57.5 2213.5,-38.5 1873.5,-38.5"/>
<text text-anchor="start" x="1875.5" y="-45.3" font-family="DejaVu Sans" font-weight="bold" font-size="14.00">N64ba667a6aad438894fb7170b113a1ba</text>
<g id="a_node15_7"><a xlink:href="N64ba667a6aad438894fb7170b113a1ba" xlink:title="&lt;TABLE&gt;">
<polygon fill="#eeeeee" stroke="none" points="1873.5,-23.5 1873.5,-38.5 2213.5,-38.5 2213.5,-23.5 1873.5,-23.5"/>
<text text-anchor="start" x="1945" y="-28.5" font-family="DejaVu Sans" font-size="10.00" fill="#6666ff">N64ba667a6aad438894fb7170b113a1ba</text>
</a>
</g>
<text text-anchor="start" x="1875.5" y="-10.3" font-family="DejaVu Sans" font-size="14.00">rdf:label</text>
<text text-anchor="start" x="2031.5" y="-10.3" font-family="DejaVu Sans" font-size="14.00">&quot;300&#45;400 K&quot;</text>
<polygon fill="none" stroke="#666666" points="1872.5,-4 1872.5,-59 2214.5,-59 2214.5,-4 1872.5,-4"/>
</g>
<!-- node8&#45;&gt;node0 -->
<g id="edge18" class="edge"><title>node8&#45;&gt;node0</title>
<path fill="none" stroke="BLACK" d="M2310.22,-113.896C2261.67,-99.0799 2203.26,-81.2555 2153.5,-66.0681"/>
<polygon fill="BLACK" stroke="BLACK" points="2154.25,-62.6388 2143.66,-63.0675 2152.21,-69.334 2154.25,-62.6388"/>
<text text-anchor="start" x="2249.5" y="-85.8" font-family="Times,serif" font-size="14.00"> </text>
<text text-anchor="start" x="2253.5" y="-85.8" font-family="Times,serif" font-size="10.00" fill="#336633">ns1:boiling&#45;point</text>
<text text-anchor="start" x="2321.5" y="-85.8" font-family="Times,serif" font-size="14.00"> </text>
</g>
<!-- node9 -->
<g id="node5" class="node"><title>node9</title>
<polygon fill="grey" stroke="none" points="762.5,-152.5 762.5,-171.5 1086.5,-171.5 1086.5,-152.5 762.5,-152.5"/>
<text text-anchor="start" x="764.5" y="-159.3" font-family="DejaVu Sans" font-weight="bold" font-size="14.00">Ncfc2dc1bdb2348429ec9a537ffed0659</text>
<g id="a_node5_8"><a xlink:href="Ncfc2dc1bdb2348429ec9a537ffed0659" xlink:title="&lt;TABLE&gt;">
<polygon fill="#eeeeee" stroke="none" points="762.5,-137.5 762.5,-152.5 1086.5,-152.5 1086.5,-137.5 762.5,-137.5"/>
<text text-anchor="start" x="828" y="-142.5" font-family="DejaVu Sans" font-size="10.00" fill="#6666ff">Ncfc2dc1bdb2348429ec9a537ffed0659</text>
</a>
</g>
<text text-anchor="start" x="764.5" y="-124.3" font-family="DejaVu Sans" font-size="14.00">rdf:label</text>
<text text-anchor="start" x="927.5" y="-124.3" font-family="DejaVu Sans" font-size="14.00">&quot;Cobalt&quot;</text>
<polygon fill="none" stroke="#666666" points="761.5,-118 761.5,-173 1087.5,-173 1087.5,-118 761.5,-118"/>
</g>
<!-- node9&#45;&gt;node3 -->
<g id="edge7" class="edge"><title>node9&#45;&gt;node3</title>
<path fill="none" stroke="BLACK" d="M753.029,-115.303C750.165,-114.861 747.32,-114.427 744.5,-114 684.651,-104.942 665.243,-119.595 609.5,-96 599.592,-91.8061 600.518,-84.9243 590.5,-81 545.57,-63.3992 426.218,-68.593 363.274,-62.997"/>
<polygon fill="BLACK" stroke="BLACK" points="363.253,-59.4756 352.942,-61.911 362.521,-66.4372 363.253,-59.4756"/>
<text text-anchor="start" x="609.5" y="-85.8" font-family="Times,serif" font-size="14.00"> </text>
<text text-anchor="start" x="613.5" y="-85.8" font-family="Times,serif" font-size="10.00" fill="#336633">ns1:melting&#45;point</text>
<text text-anchor="start" x="683.5" y="-85.8" font-family="Times,serif" font-size="14.00"> </text>
</g>
<!-- node9&#45;&gt;node10 -->
<g id="edge3" class="edge"><title>node9&#45;&gt;node10</title>
<path fill="none" stroke="BLACK" d="M878.051,-113.962C869.475,-108.113 860.656,-101.954 852.5,-96 843.81,-89.6568 843.336,-85.3603 833.5,-81 831.999,-80.3344 784.654,-72.3093 728.708,-62.9723"/>
<polygon fill="BLACK" stroke="BLACK" points="728.985,-59.4702 718.545,-61.2776 727.833,-66.3749 728.985,-59.4702"/>
<text text-anchor="start" x="852.5" y="-85.8" font-family="Times,serif" font-size="14.00"> </text>
<text text-anchor="start" x="856.5" y="-85.8" font-family="Times,serif" font-size="10.00" fill="#336633">ns1:boiling&#45;point</text>
<text text-anchor="start" x="924.5" y="-85.8" font-family="Times,serif" font-size="14.00"> </text>
</g>
<!-- node9&#45;&gt;node6 -->
<g id="edge14" class="edge"><title>node9&#45;&gt;node6</title>
<path fill="none" stroke="BLACK" d="M932.24,-113.698C933.836,-103.272 934.5,-91.5908 932.5,-81 931.99,-78.3022 931.335,-75.5622 930.574,-72.828"/>
<polygon fill="BLACK" stroke="BLACK" points="933.822,-71.493 927.438,-63.0373 927.155,-73.6284 933.822,-71.493"/>
<text text-anchor="start" x="934.5" y="-85.8" font-family="Times,serif" font-size="14.00"> </text>
<text text-anchor="start" x="938.5" y="-85.8" font-family="Times,serif" font-size="10.00" fill="#336633">ns1:phase</text>
<text text-anchor="start" x="978.5" y="-85.8" font-family="Times,serif" font-size="14.00"> </text>
</g>
<!-- node11 -->
<g id="node7" class="node"><title>node11</title>
<polygon fill="grey" stroke="none" points="382.5,-152.5 382.5,-171.5 726.5,-171.5 726.5,-152.5 382.5,-152.5"/>
<text text-anchor="start" x="384.5" y="-159.3" font-family="DejaVu Sans" font-weight="bold" font-size="14.00">N822917c82d434bd888c7666347745a9d</text>
<g id="a_node7_9"><a xlink:href="N822917c82d434bd888c7666347745a9d" xlink:title="&lt;TABLE&gt;">
<polygon fill="#eeeeee" stroke="none" points="382.5,-137.5 382.5,-152.5 726.5,-152.5 726.5,-137.5 382.5,-137.5"/>
<text text-anchor="start" x="455" y="-142.5" font-family="DejaVu Sans" font-size="10.00" fill="#6666ff">N822917c82d434bd888c7666347745a9d</text>
</a>
</g>
<text text-anchor="start" x="384.5" y="-124.3" font-family="DejaVu Sans" font-size="14.00">rdf:label</text>
<text text-anchor="start" x="558.5" y="-124.3" font-family="DejaVu Sans" font-size="14.00">&quot;Nickel&quot;</text>
<polygon fill="none" stroke="#666666" points="381.5,-118 381.5,-173 727.5,-173 727.5,-118 381.5,-118"/>
</g>
<!-- node11&#45;&gt;node3 -->
<g id="edge4" class="edge"><title>node11&#45;&gt;node3</title>
<path fill="none" stroke="BLACK" d="M373.18,-115.603C328.189,-107.793 289.781,-100.316 279.5,-96 268.924,-91.5608 268.023,-87.3925 258.5,-81 252.458,-76.9441 246.097,-72.7775 239.728,-68.6715"/>
<polygon fill="BLACK" stroke="BLACK" points="241.376,-65.5706 231.067,-63.1259 237.601,-71.4658 241.376,-65.5706"/>
<text text-anchor="start" x="279.5" y="-85.8" font-family="Times,serif" font-size="14.00"> </text>
<text text-anchor="start" x="283.5" y="-85.8" font-family="Times,serif" font-size="10.00" fill="#336633">ns1:melting&#45;point</text>
<text text-anchor="start" x="353.5" y="-85.8" font-family="Times,serif" font-size="14.00"> </text>
</g>
<!-- node11&#45;&gt;node10 -->
<g id="edge16" class="edge"><title>node11&#45;&gt;node10</title>
<path fill="none" stroke="BLACK" d="M524.148,-113.856C520.2,-108.299 516.751,-102.266 514.5,-96 511.716,-88.2499 512.49,-80.1693 515.137,-72.4721"/>
<polygon fill="BLACK" stroke="BLACK" points="518.34,-73.8826 519.182,-63.3212 511.938,-71.0524 518.34,-73.8826"/>
<text text-anchor="start" x="514.5" y="-85.8" font-family="Times,serif" font-size="14.00"> </text>
<text text-anchor="start" x="518.5" y="-85.8" font-family="Times,serif" font-size="10.00" fill="#336633">ns1:boiling&#45;point</text>
<text text-anchor="start" x="586.5" y="-85.8" font-family="Times,serif" font-size="14.00"> </text>
</g>
<!-- node11&#45;&gt;node6 -->
<g id="edge15" class="edge"><title>node11&#45;&gt;node6</title>
<path fill="none" stroke="BLACK" d="M711.992,-113.986C729.318,-108.807 746.472,-102.843 762.5,-96 773.724,-91.2083 774.62,-86.5275 785.5,-81 795.152,-76.0968 805.421,-71.4028 815.784,-66.9989"/>
<polygon fill="BLACK" stroke="BLACK" points="817.421,-70.1089 825.311,-63.0384 814.734,-63.6451 817.421,-70.1089"/>
<text text-anchor="start" x="785.5" y="-85.8" font-family="Times,serif" font-size="14.00"> </text>
<text text-anchor="start" x="789.5" y="-85.8" font-family="Times,serif" font-size="10.00" fill="#336633">ns1:phase</text>
<text text-anchor="start" x="829.5" y="-85.8" font-family="Times,serif" font-size="14.00"> </text>
</g>
<!-- node12 -->
<g id="node8" class="node"><title>node12</title>
<polygon fill="grey" stroke="none" points="1122.5,-152.5 1122.5,-171.5 1454.5,-171.5 1454.5,-152.5 1122.5,-152.5"/>
<text text-anchor="start" x="1124.5" y="-159.3" font-family="DejaVu Sans" font-weight="bold" font-size="14.00">N0003d86f001b407b8199cfef284aa5a7</text>
<g id="a_node8_10"><a xlink:href="N0003d86f001b407b8199cfef284aa5a7" xlink:title="&lt;TABLE&gt;">
<polygon fill="#eeeeee" stroke="none" points="1122.5,-137.5 1122.5,-152.5 1454.5,-152.5 1454.5,-137.5 1122.5,-137.5"/>
<text text-anchor="start" x="1192" y="-142.5" font-family="DejaVu Sans" font-size="10.00" fill="#6666ff">N0003d86f001b407b8199cfef284aa5a7</text>
</a>
</g>
<text text-anchor="start" x="1124.5" y="-124.3" font-family="DejaVu Sans" font-size="14.00">rdf:label</text>
<text text-anchor="start" x="1288.5" y="-124.3" font-family="DejaVu Sans" font-size="14.00">&quot;Copper&quot;</text>
<polygon fill="none" stroke="#666666" points="1121.5,-118 1121.5,-173 1455.5,-173 1455.5,-118 1121.5,-118"/>
</g>
<!-- node13 -->
<g id="node9" class="node"><title>node13</title>
<polygon fill="grey" stroke="none" points="1117.5,-38.5 1117.5,-57.5 1458.5,-57.5 1458.5,-38.5 1117.5,-38.5"/>
<text text-anchor="start" x="1119.5" y="-45.3" font-family="DejaVu Sans" font-weight="bold" font-size="14.00">Ne7e932460fce494489559781a94de800</text>
<g id="a_node9_11"><a xlink:href="Ne7e932460fce494489559781a94de800" xlink:title="&lt;TABLE&gt;">
<polygon fill="#eeeeee" stroke="none" points="1117.5,-23.5 1117.5,-38.5 1458.5,-38.5 1458.5,-23.5 1117.5,-23.5"/>
<text text-anchor="start" x="1189.5" y="-28.5" font-family="DejaVu Sans" font-size="10.00" fill="#6666ff">Ne7e932460fce494489559781a94de800</text>
</a>
</g>
<text text-anchor="start" x="1119.5" y="-10.3" font-family="DejaVu Sans" font-size="14.00">rdf:label</text>
<text text-anchor="start" x="1266.5" y="-10.3" font-family="DejaVu Sans" font-size="14.00">&quot;1000&#45;1500 K&quot;</text>
<polygon fill="none" stroke="#666666" points="1116,-4 1116,-59 1459,-59 1459,-4 1116,-4"/>
</g>
<!-- node12&#45;&gt;node13 -->
<g id="edge5" class="edge"><title>node12&#45;&gt;node13</title>
<path fill="none" stroke="BLACK" d="M1288.23,-113.896C1288.12,-101.426 1287.99,-86.8244 1287.87,-73.458"/>
<polygon fill="BLACK" stroke="BLACK" points="1291.36,-73.0358 1287.77,-63.0675 1284.36,-73.0984 1291.36,-73.0358"/>
<text text-anchor="start" x="1288.5" y="-85.8" font-family="Times,serif" font-size="14.00"> </text>
<text text-anchor="start" x="1292.5" y="-85.8" font-family="Times,serif" font-size="10.00" fill="#336633">ns1:melting&#45;point</text>
<text text-anchor="start" x="1362.5" y="-85.8" font-family="Times,serif" font-size="14.00"> </text>
</g>
<!-- node12&#45;&gt;node6 -->
<g id="edge17" class="edge"><title>node12&#45;&gt;node6</title>
<path fill="none" stroke="BLACK" d="M1186.03,-113.896C1136.32,-99.049 1076.49,-81.1812 1025.58,-65.9732"/>
<polygon fill="BLACK" stroke="BLACK" points="1026.43,-62.5757 1015.85,-63.0675 1024.43,-69.2829 1026.43,-62.5757"/>
<text text-anchor="start" x="1123.5" y="-85.8" font-family="Times,serif" font-size="14.00"> </text>
<text text-anchor="start" x="1127.5" y="-85.8" font-family="Times,serif" font-size="10.00" fill="#336633">ns1:phase</text>
<text text-anchor="start" x="1167.5" y="-85.8" font-family="Times,serif" font-size="14.00"> </text>
</g>
<!-- node4 -->
<g id="node12" class="node"><title>node4</title>
<polygon fill="grey" stroke="none" points="1494.5,-38.5 1494.5,-57.5 1837.5,-57.5 1837.5,-38.5 1494.5,-38.5"/>
<text text-anchor="start" x="1496.5" y="-45.3" font-family="DejaVu Sans" font-weight="bold" font-size="14.00">N810a636bd15547fb9e37a56651b94471</text>
<g id="a_node12_12"><a xlink:href="N810a636bd15547fb9e37a56651b94471" xlink:title="&lt;TABLE&gt;">
<polygon fill="#eeeeee" stroke="none" points="1494.5,-23.5 1494.5,-38.5 1837.5,-38.5 1837.5,-23.5 1494.5,-23.5"/>
<text text-anchor="start" x="1567.5" y="-28.5" font-family="DejaVu Sans" font-size="10.00" fill="#6666ff">N810a636bd15547fb9e37a56651b94471</text>
</a>
</g>
<text text-anchor="start" x="1496.5" y="-10.3" font-family="DejaVu Sans" font-size="14.00">rdf:label</text>
<text text-anchor="start" x="1644.5" y="-10.3" font-family="DejaVu Sans" font-size="14.00">&quot;2500&#45;3000 K&quot;</text>
<polygon fill="none" stroke="#666666" points="1493,-4 1493,-59 1838,-59 1838,-4 1493,-4"/>
</g>
<!-- node12&#45;&gt;node4 -->
<g id="edge10" class="edge"><title>node12&#45;&gt;node4</title>
<path fill="none" stroke="BLACK" d="M1391.52,-113.896C1441.49,-99.049 1501.64,-81.1812 1552.83,-65.9732"/>
<polygon fill="BLACK" stroke="BLACK" points="1554.02,-69.2704 1562.61,-63.0675 1552.02,-62.5603 1554.02,-69.2704"/>
<text text-anchor="start" x="1500.5" y="-85.8" font-family="Times,serif" font-size="14.00"> </text>
<text text-anchor="start" x="1504.5" y="-85.8" font-family="Times,serif" font-size="10.00" fill="#336633">ns1:boiling&#45;point</text>
<text text-anchor="start" x="1572.5" y="-85.8" font-family="Times,serif" font-size="14.00"> </text>
</g>
<!-- node1 -->
<g id="node13" class="node"><title>node1</title>
<polygon fill="grey" stroke="none" points="2615.5,-152.5 2615.5,-171.5 2951.5,-171.5 2951.5,-152.5 2615.5,-152.5"/>
<text text-anchor="start" x="2617.5" y="-159.3" font-family="DejaVu Sans" font-weight="bold" font-size="14.00">Ne0344d5b929c4efd9a9797899d3730cc</text>
<g id="a_node13_13"><a xlink:href="Ne0344d5b929c4efd9a9797899d3730cc" xlink:title="&lt;TABLE&gt;">
<polygon fill="#eeeeee" stroke="none" points="2615.5,-137.5 2615.5,-152.5 2951.5,-152.5 2951.5,-137.5 2615.5,-137.5"/>
<text text-anchor="start" x="2685" y="-142.5" font-family="DejaVu Sans" font-size="10.00" fill="#6666ff">Ne0344d5b929c4efd9a9797899d3730cc</text>
</a>
</g>
<text text-anchor="start" x="2617.5" y="-124.3" font-family="DejaVu Sans" font-size="14.00">rdf:label</text>
<text text-anchor="start" x="2780.5" y="-124.3" font-family="DejaVu Sans" font-size="14.00">&quot;Mercury&quot;</text>
<polygon fill="none" stroke="#666666" points="2614.5,-118 2614.5,-173 2952.5,-173 2952.5,-118 2614.5,-118"/>
</g>
<!-- node1&#45;&gt;node2 -->
<g id="edge11" class="edge"><title>node1&#45;&gt;node2</title>
<path fill="none" stroke="BLACK" d="M2730.63,-113.84C2708.61,-102.141 2682.4,-89.5708 2657.5,-81 2638.02,-74.2952 2617.33,-68.4052 2596.56,-63.2592"/>
<polygon fill="BLACK" stroke="BLACK" points="2597.23,-59.8206 2586.69,-60.8699 2595.58,-66.6241 2597.23,-59.8206"/>
<text text-anchor="start" x="2692.5" y="-85.8" font-family="Times,serif" font-size="14.00"> </text>
<text text-anchor="start" x="2696.5" y="-85.8" font-family="Times,serif" font-size="10.00" fill="#336633">ns1:phase</text>
<text text-anchor="start" x="2736.5" y="-85.8" font-family="Times,serif" font-size="14.00"> </text>
</g>
<!-- node1&#45;&gt;node16 -->
<g id="edge12" class="edge"><title>node1&#45;&gt;node16</title>
<path fill="none" stroke="BLACK" d="M2782.41,-113.896C2781.96,-101.302 2781.43,-86.5351 2780.95,-73.0614"/>
<polygon fill="BLACK" stroke="BLACK" points="2784.45,-72.9362 2780.59,-63.0675 2777.45,-73.1861 2784.45,-72.9362"/>
<text text-anchor="start" x="2781.5" y="-85.8" font-family="Times,serif" font-size="14.00"> </text>
<text text-anchor="start" x="2785.5" y="-85.8" font-family="Times,serif" font-size="10.00" fill="#336633">ns1:melting&#45;point</text>
<text text-anchor="start" x="2855.5" y="-85.8" font-family="Times,serif" font-size="14.00"> </text>
</g>
<!-- node7 -->
<g id="node14" class="node"><title>node7</title>
<polygon fill="grey" stroke="none" points="2981.5,-38.5 2981.5,-57.5 3303.5,-57.5 3303.5,-38.5 2981.5,-38.5"/>
<text text-anchor="start" x="2983.5" y="-45.3" font-family="DejaVu Sans" font-weight="bold" font-size="14.00">Ndb520cbc4c9a4ec59a273c6ff840ba8f</text>
<g id="a_node14_14"><a xlink:href="Ndb520cbc4c9a4ec59a273c6ff840ba8f" xlink:title="&lt;TABLE&gt;">
<polygon fill="#eeeeee" stroke="none" points="2981.5,-23.5 2981.5,-38.5 3303.5,-38.5 3303.5,-23.5 2981.5,-23.5"/>
<text text-anchor="start" x="3046" y="-28.5" font-family="DejaVu Sans" font-size="10.00" fill="#6666ff">Ndb520cbc4c9a4ec59a273c6ff840ba8f</text>
</a>
</g>
<text text-anchor="start" x="2983.5" y="-10.3" font-family="DejaVu Sans" font-size="14.00">rdf:label</text>
<text text-anchor="start" x="3130.5" y="-10.3" font-family="DejaVu Sans" font-size="14.00">&quot;600&#45;700 K&quot;</text>
<polygon fill="none" stroke="#666666" points="2980.5,-4 2980.5,-59 3304.5,-59 3304.5,-4 2980.5,-4"/>
</g>
<!-- node1&#45;&gt;node7 -->
<g id="edge13" class="edge"><title>node1&#45;&gt;node7</title>
<path fill="none" stroke="BLACK" d="M2881.6,-113.896C2929.09,-99.0799 2986.22,-81.2555 3034.9,-66.0681"/>
<polygon fill="BLACK" stroke="BLACK" points="3036.02,-69.3869 3044.52,-63.0675 3033.93,-62.7046 3036.02,-69.3869"/>
<text text-anchor="start" x="2983.5" y="-85.8" font-family="Times,serif" font-size="14.00"> </text>
<text text-anchor="start" x="2987.5" y="-85.8" font-family="Times,serif" font-size="10.00" fill="#336633">ns1:boiling&#45;point</text>
<text text-anchor="start" x="3055.5" y="-85.8" font-family="Times,serif" font-size="14.00"> </text>
</g>
<!-- node15 -->
<g id="node16" class="node"><title>node15</title>
<polygon fill="grey" stroke="none" points="2988.5,-152.5 2988.5,-171.5 3325.5,-171.5 3325.5,-152.5 2988.5,-152.5"/>
<text text-anchor="start" x="2990.5" y="-159.3" font-family="DejaVu Sans" font-weight="bold" font-size="14.00">N4695dbc2c4744d478a882ad2625fc145</text>
<g id="a_node16_15"><a xlink:href="N4695dbc2c4744d478a882ad2625fc145" xlink:title="&lt;TABLE&gt;">
<polygon fill="#eeeeee" stroke="none" points="2988.5,-137.5 2988.5,-152.5 3325.5,-152.5 3325.5,-137.5 2988.5,-137.5"/>
<text text-anchor="start" x="3058.5" y="-142.5" font-family="DejaVu Sans" font-size="10.00" fill="#6666ff">N4695dbc2c4744d478a882ad2625fc145</text>
</a>
</g>
<text text-anchor="start" x="2990.5" y="-124.3" font-family="DejaVu Sans" font-size="14.00">rdf:label</text>
<text text-anchor="start" x="3144.5" y="-124.3" font-family="DejaVu Sans" font-size="14.00">&quot;400&#45;500 K&quot;</text>
<polygon fill="none" stroke="#666666" points="2987,-118 2987,-173 3326,-173 3326,-118 2987,-118"/>
</g>
<!-- node14 -->
<g id="node17" class="node"><title>node14</title>
<polygon fill="grey" stroke="none" points="3361.5,-152.5 3361.5,-171.5 3686.5,-171.5 3686.5,-152.5 3361.5,-152.5"/>
<text text-anchor="start" x="3363.5" y="-159.3" font-family="DejaVu Sans" font-weight="bold" font-size="14.00">N08be3dcf0a5e494a8073f2dad5ef85f5</text>
<g id="a_node17_16"><a xlink:href="N08be3dcf0a5e494a8073f2dad5ef85f5" xlink:title="&lt;TABLE&gt;">
<polygon fill="#eeeeee" stroke="none" points="3361.5,-137.5 3361.5,-152.5 3686.5,-152.5 3686.5,-137.5 3361.5,-137.5"/>
<text text-anchor="start" x="3429" y="-142.5" font-family="DejaVu Sans" font-size="10.00" fill="#6666ff">N08be3dcf0a5e494a8073f2dad5ef85f5</text>
</a>
</g>
<text text-anchor="start" x="3363.5" y="-124.3" font-family="DejaVu Sans" font-size="14.00">rdf:label</text>
<text text-anchor="start" x="3511.5" y="-124.3" font-family="DejaVu Sans" font-size="14.00">&quot;300&#45;400 K&quot;</text>
<polygon fill="none" stroke="#666666" points="3360,-118 3360,-173 3687,-173 3687,-118 3360,-118"/>
</g>
</g>
</svg>
