<?xml version="1.0" encoding="UTF-8" standalone="no"?>
<!DOCTYPE svg PUBLIC "-//W3C//DTD SVG 1.1//EN"
 "http://www.w3.org/Graphics/SVG/1.1/DTD/svg11.dtd">
<!-- Generated by graphviz version 2.38.0 (20140413.2041)
 -->
<!-- Title: %3 Pages: 1 -->
<svg width="2201pt" height="204pt"
 viewBox="0.00 0.00 2200.50 204.00" xmlns="http://www.w3.org/2000/svg" xmlns:xlink="http://www.w3.org/1999/xlink">
<g id="graph0" class="graph" transform="scale(1 1) rotate(0) translate(4 200)">
<title>%3</title>
<polygon fill="white" stroke="none" points="-4,4 -4,-200 2196.5,-200 2196.5,4 -4,4"/>
<!-- node1 -->
<g id="node1" class="node"><title>node1</title>
<polygon fill="grey" stroke="none" points="9,-172 9,-191 343,-191 343,-172 9,-172"/>
<text text-anchor="start" x="11" y="-178.8" font-family="DejaVu Sans" font-weight="bold" font-size="14.00">N9a0699d900274cb7a0e3d5aeef730cca</text>
<g id="a_node1_0"><a xlink:href="N9a0699d900274cb7a0e3d5aeef730cca" xlink:title="&lt;TABLE&gt;">
<polygon fill="#eeeeee" stroke="none" points="9,-157 9,-172 343,-172 343,-157 9,-157"/>
<text text-anchor="start" x="77.5" y="-162" font-family="DejaVu Sans" font-size="10.00" fill="#6666ff">N9a0699d900274cb7a0e3d5aeef730cca</text>
</a>
</g>
<text text-anchor="start" x="11" y="-143.8" font-family="DejaVu Sans" font-size="14.00">ns1:boiling&#45;point</text>
<text text-anchor="start" x="208" y="-143.8" font-family="DejaVu Sans" font-size="14.00">&quot;332.0 K&quot;</text>
<text text-anchor="start" x="11" y="-124.8" font-family="DejaVu Sans" font-size="14.00">ns1:melting&#45;point</text>
<text text-anchor="start" x="208" y="-124.8" font-family="DejaVu Sans" font-size="14.00">&quot;265.8 K&quot;</text>
<polygon fill="none" stroke="#666666" points="8,-118 8,-192 344,-192 344,-118 8,-118"/>
</g>
<!-- node2 -->
<g id="node2" class="node"><title>node2</title>
<polygon fill="grey" stroke="none" points="197,-38.5 197,-57.5 526,-57.5 526,-38.5 197,-38.5"/>
<text text-anchor="start" x="199" y="-45.3" font-family="DejaVu Sans" font-weight="bold" font-size="14.00">N023b3af42b4c408cb8da2fe5902f281a</text>
<g id="a_node2_1"><a xlink:href="N023b3af42b4c408cb8da2fe5902f281a" xlink:title="&lt;TABLE&gt;">
<polygon fill="#eeeeee" stroke="none" points="197,-23.5 197,-38.5 526,-38.5 526,-23.5 197,-23.5"/>
<text text-anchor="start" x="265" y="-28.5" font-family="DejaVu Sans" font-size="10.00" fill="#6666ff">N023b3af42b4c408cb8da2fe5902f281a</text>
</a>
</g>
<text text-anchor="start" x="199" y="-10.3" font-family="DejaVu Sans" font-size="14.00">rdf:label</text>
<text text-anchor="start" x="365" y="-10.3" font-family="DejaVu Sans" font-size="14.00">&quot;Liquid&quot;</text>
<polygon fill="none" stroke="#666666" points="195.5,-4 195.5,-59 526.5,-59 526.5,-4 195.5,-4"/>
</g>
<!-- node1&#45;&gt;node2 -->
<g id="edge1" class="edge"><title>node1&#45;&gt;node2</title>
<path fill="none" stroke="BLACK" d="M237.089,-113.88C259.295,-99.2955 284.242,-82.9114 305.9,-68.6876"/>
<polygon fill="BLACK" stroke="BLACK" points="307.899,-71.5618 314.336,-63.1467 304.056,-65.7108 307.899,-71.5618"/>
<text text-anchor="start" x="286" y="-85.8" font-family="Times,serif" font-size="14.00"> </text>
<text text-anchor="start" x="290" y="-85.8" font-family="Times,serif" font-size="10.00" fill="#336633">ns1:phase</text>
<text text-anchor="start" x="330" y="-85.8" font-family="Times,serif" font-size="14.00"> </text>
</g>
<!-- node5 -->
<g id="node3" class="node"><title>node5</title>
<polygon fill="grey" stroke="none" points="749,-172 749,-191 1079,-191 1079,-172 749,-172"/>
<text text-anchor="start" x="751" y="-178.8" font-family="DejaVu Sans" font-weight="bold" font-size="14.00">N4cb14519dde04a19917abfd6d1ec2edf</text>
<g id="a_node3_2"><a xlink:href="N4cb14519dde04a19917abfd6d1ec2edf" xlink:title="&lt;TABLE&gt;">
<polygon fill="#eeeeee" stroke="none" points="749,-157 749,-172 1079,-172 1079,-157 749,-157"/>
<text text-anchor="start" x="816.5" y="-162" font-family="DejaVu Sans" font-size="10.00" fill="#6666ff">N4cb14519dde04a19917abfd6d1ec2edf</text>
</a>
</g>
<text text-anchor="start" x="751" y="-143.8" font-family="DejaVu Sans" font-size="14.00">ns1:boiling&#45;point</text>
<text text-anchor="start" x="948" y="-143.8" font-family="DejaVu Sans" font-size="14.00">&quot;2835 K&quot;</text>
<text text-anchor="start" x="751" y="-124.8" font-family="DejaVu Sans" font-size="14.00">ns1:melting&#45;point</text>
<text text-anchor="start" x="948" y="-124.8" font-family="DejaVu Sans" font-size="14.00">&quot;1358 K&quot;</text>
<polygon fill="none" stroke="#666666" points="748,-118 748,-192 1080,-192 1080,-118 748,-118"/>
</g>
<!-- node3 -->
<g id="node4" class="node"><title>node3</title>
<polygon fill="grey" stroke="none" points="1302,-38.5 1302,-57.5 1630,-57.5 1630,-38.5 1302,-38.5"/>
<text text-anchor="start" x="1304" y="-45.3" font-family="DejaVu Sans" font-weight="bold" font-size="14.00">Ne07ec3f2be81442e8888f965f04530fd</text>
<g id="a_node4_3"><a xlink:href="Ne07ec3f2be81442e8888f965f04530fd" xlink:title="&lt;TABLE&gt;">
<polygon fill="#eeeeee" stroke="none" points="1302,-23.5 1302,-38.5 1630,-38.5 1630,-23.5 1302,-23.5"/>
<text text-anchor="start" x="1371" y="-28.5" font-family="DejaVu Sans" font-size="10.00" fill="#6666ff">Ne07ec3f2be81442e8888f965f04530fd</text>
</a>
</g>
<text text-anchor="start" x="1304" y="-10.3" font-family="DejaVu Sans" font-size="14.00">rdf:label</text>
<text text-anchor="start" x="1473" y="-10.3" font-family="DejaVu Sans" font-size="14.00">&quot;Solid&quot;</text>
<polygon fill="none" stroke="#666666" points="1301,-4 1301,-59 1631,-59 1631,-4 1301,-4"/>
</g>
<!-- node5&#45;&gt;node3 -->
<g id="edge2" class="edge"><title>node5&#45;&gt;node3</title>
<path fill="none" stroke="BLACK" d="M1088.28,-115.64C1161.9,-99.4343 1246.76,-80.757 1317.37,-65.2154"/>
<polygon fill="BLACK" stroke="BLACK" points="1318.22,-68.6117 1327.23,-63.0438 1316.71,-61.7753 1318.22,-68.6117"/>
<text text-anchor="start" x="1240" y="-85.8" font-family="Times,serif" font-size="14.00"> </text>
<text text-anchor="start" x="1244" y="-85.8" font-family="Times,serif" font-size="10.00" fill="#336633">ns1:phase</text>
<text text-anchor="start" x="1284" y="-85.8" font-family="Times,serif" font-size="14.00"> </text>
</g>
<!-- node6 -->
<g id="node5" class="node"><title>node6</title>
<polygon fill="grey" stroke="none" points="1115,-172 1115,-191 1447,-191 1447,-172 1115,-172"/>
<text text-anchor="start" x="1117" y="-178.8" font-family="DejaVu Sans" font-weight="bold" font-size="14.00">N5c5bceade3b046768dd702c82c080d5f</text>
<g id="a_node5_4"><a xlink:href="N5c5bceade3b046768dd702c82c080d5f" xlink:title="&lt;TABLE&gt;">
<polygon fill="#eeeeee" stroke="none" points="1115,-157 1115,-172 1447,-172 1447,-157 1115,-157"/>
<text text-anchor="start" x="1182.5" y="-162" font-family="DejaVu Sans" font-size="10.00" fill="#6666ff">N5c5bceade3b046768dd702c82c080d5f</text>
</a>
</g>
<text text-anchor="start" x="1117" y="-143.8" font-family="DejaVu Sans" font-size="14.00">ns1:boiling&#45;point</text>
<text text-anchor="start" x="1315" y="-143.8" font-family="DejaVu Sans" font-size="14.00">&quot;3003 K&quot;</text>
<text text-anchor="start" x="1117" y="-124.8" font-family="DejaVu Sans" font-size="14.00">ns1:melting&#45;point</text>
<text text-anchor="start" x="1315" y="-124.8" font-family="DejaVu Sans" font-size="14.00">&quot;1728 K&quot;</text>
<polygon fill="none" stroke="#666666" points="1114,-118 1114,-192 1448,-192 1448,-118 1114,-118"/>
</g>
<!-- node6&#45;&gt;node3 -->
<g id="edge3" class="edge"><title>node6&#45;&gt;node3</title>
<path fill="none" stroke="BLACK" d="M1342.09,-113.88C1364.29,-99.2955 1389.24,-82.9114 1410.9,-68.6876"/>
<polygon fill="BLACK" stroke="BLACK" points="1412.9,-71.5618 1419.34,-63.1467 1409.06,-65.7108 1412.9,-71.5618"/>
<text text-anchor="start" x="1391" y="-85.8" font-family="Times,serif" font-size="14.00"> </text>
<text text-anchor="start" x="1395" y="-85.8" font-family="Times,serif" font-size="10.00" fill="#336633">ns1:phase</text>
<text text-anchor="start" x="1435" y="-85.8" font-family="Times,serif" font-size="14.00"> </text>
</g>
<!-- node4 -->
<g id="node6" class="node"><title>node4</title>
<polygon fill="grey" stroke="none" points="380,-172 380,-191 713,-191 713,-172 380,-172"/>
<text text-anchor="start" x="382" y="-178.8" font-family="DejaVu Sans" font-weight="bold" font-size="14.00">Nb0d9105f49ec4565a92277e26ac9fdb7</text>
<g id="a_node6_5"><a xlink:href="Nb0d9105f49ec4565a92277e26ac9fdb7" xlink:title="&lt;TABLE&gt;">
<polygon fill="#eeeeee" stroke="none" points="380,-157 380,-172 713,-172 713,-157 380,-157"/>
<text text-anchor="start" x="449" y="-162" font-family="DejaVu Sans" font-size="10.00" fill="#6666ff">Nb0d9105f49ec4565a92277e26ac9fdb7</text>
</a>
</g>
<text text-anchor="start" x="382" y="-143.8" font-family="DejaVu Sans" font-size="14.00">ns1:boiling&#45;point</text>
<text text-anchor="start" x="565" y="-143.8" font-family="DejaVu Sans" font-size="14.00">&quot;629.88 K&quot;</text>
<text text-anchor="start" x="382" y="-124.8" font-family="DejaVu Sans" font-size="14.00">ns1:melting&#45;point</text>
<text text-anchor="start" x="565" y="-124.8" font-family="DejaVu Sans" font-size="14.00">&quot;234.3210 K&quot;</text>
<polygon fill="none" stroke="#666666" points="378.5,-118 378.5,-192 713.5,-192 713.5,-118 378.5,-118"/>
</g>
<!-- node4&#45;&gt;node2 -->
<g id="edge4" class="edge"><title>node4&#45;&gt;node2</title>
<path fill="none" stroke="BLACK" d="M484.911,-113.88C462.705,-99.2955 437.758,-82.9114 416.1,-68.6876"/>
<polygon fill="BLACK" stroke="BLACK" points="417.944,-65.7108 407.664,-63.1467 414.101,-71.5618 417.944,-65.7108"/>
<text text-anchor="start" x="454" y="-85.8" font-family="Times,serif" font-size="14.00"> </text>
<text text-anchor="start" x="458" y="-85.8" font-family="Times,serif" font-size="10.00" fill="#336633">ns1:phase</text>
<text text-anchor="start" x="498" y="-85.8" font-family="Times,serif" font-size="14.00"> </text>
</g>
<!-- node7 -->
<g id="node7" class="node"><title>node7</title>
<polygon fill="grey" stroke="none" points="1484,-172 1484,-191 1819,-191 1819,-172 1484,-172"/>
<text text-anchor="start" x="1486" y="-178.8" font-family="DejaVu Sans" font-weight="bold" font-size="14.00">Nd18dc6c19d184096897f513aeacd702b</text>
<g id="a_node7_6"><a xlink:href="Nd18dc6c19d184096897f513aeacd702b" xlink:title="&lt;TABLE&gt;">
<polygon fill="#eeeeee" stroke="none" points="1484,-157 1484,-172 1819,-172 1819,-157 1484,-157"/>
<text text-anchor="start" x="1553" y="-162" font-family="DejaVu Sans" font-size="10.00" fill="#6666ff">Nd18dc6c19d184096897f513aeacd702b</text>
</a>
</g>
<text text-anchor="start" x="1486" y="-143.8" font-family="DejaVu Sans" font-size="14.00">ns1:boiling&#45;point</text>
<text text-anchor="start" x="1686" y="-143.8" font-family="DejaVu Sans" font-size="14.00">&quot;3200 K&quot;</text>
<text text-anchor="start" x="1486" y="-124.8" font-family="DejaVu Sans" font-size="14.00">ns1:melting&#45;point</text>
<text text-anchor="start" x="1686" y="-124.8" font-family="DejaVu Sans" font-size="14.00">&quot;1768 K&quot;</text>
<polygon fill="none" stroke="#666666" points="1482.5,-118 1482.5,-192 1819.5,-192 1819.5,-118 1482.5,-118"/>
</g>
<!-- node7&#45;&gt;node3 -->
<g id="edge5" class="edge"><title>node7&#45;&gt;node3</title>
<path fill="none" stroke="BLACK" d="M1589.91,-113.88C1567.71,-99.2955 1542.76,-82.9114 1521.1,-68.6876"/>
<polygon fill="BLACK" stroke="BLACK" points="1522.94,-65.7108 1512.66,-63.1467 1519.1,-71.5618 1522.94,-65.7108"/>
<text text-anchor="start" x="1559" y="-85.8" font-family="Times,serif" font-size="14.00"> </text>
<text text-anchor="start" x="1563" y="-85.8" font-family="Times,serif" font-size="10.00" fill="#336633">ns1:phase</text>
<text text-anchor="start" x="1603" y="-85.8" font-family="Times,serif" font-size="14.00"> </text>
</g>
<!-- node0 -->
<g id="node8" class="node"><title>node0</title>
<polygon fill="grey" stroke="none" points="1855,-172 1855,-191 2184,-191 2184,-172 1855,-172"/>
<text text-anchor="start" x="1857" y="-178.8" font-family="DejaVu Sans" font-weight="bold" font-size="14.00">N31a6bf87b4484a718f39d6fbe3c1ec09</text>
<g id="a_node8_7"><a xlink:href="N31a6bf87b4484a718f39d6fbe3c1ec09" xlink:title="&lt;TABLE&gt;">
<polygon fill="#eeeeee" stroke="none" points="1855,-157 1855,-172 2184,-172 2184,-157 1855,-157"/>
<text text-anchor="start" x="1923" y="-162" font-family="DejaVu Sans" font-size="10.00" fill="#6666ff">N31a6bf87b4484a718f39d6fbe3c1ec09</text>
</a>
</g>
<text text-anchor="start" x="1857" y="-143.8" font-family="DejaVu Sans" font-size="14.00">ns1:boiling&#45;point</text>
<text text-anchor="start" x="2054" y="-143.8" font-family="DejaVu Sans" font-size="14.00">&quot;3134 K&quot;</text>
<text text-anchor="start" x="1857" y="-124.8" font-family="DejaVu Sans" font-size="14.00">ns1:melting&#45;point</text>
<text text-anchor="start" x="2054" y="-124.8" font-family="DejaVu Sans" font-size="14.00">&quot;1811 K&quot;</text>
<polygon fill="none" stroke="#666666" points="1853.5,-118 1853.5,-192 2184.5,-192 2184.5,-118 1853.5,-118"/>
</g>
<!-- node0&#45;&gt;node3 -->
<g id="edge6" class="edge"><title>node0&#45;&gt;node3</title>
<path fill="none" stroke="BLACK" d="M1845.17,-115.807C1771.22,-99.5595 1685.85,-80.8035 1614.86,-65.2068"/>
<polygon fill="BLACK" stroke="BLACK" points="1615.46,-61.7552 1604.94,-63.0276 1613.96,-68.5921 1615.46,-61.7552"/>
<text text-anchor="start" x="1743" y="-85.8" font-family="Times,serif" font-size="14.00"> </text>
<text text-anchor="start" x="1747" y="-85.8" font-family="Times,serif" font-size="10.00" fill="#336633">ns1:phase</text>
<text text-anchor="start" x="1787" y="-85.8" font-family="Times,serif" font-size="14.00"> </text>
</g>
</g>
</svg>
